# xmcd
#
# Track frame offsets:
#	150
#	21977
#	42147
#	66072
#	88507
#	113577
#	130072
#	149797
#	172765
#	177905
#	199747
#	222047
#
# Disc length: 3114 seconds
#
# Revision: 2
# Processed by: cddbd v1.5.2PL0 Copyright (c) Steve Scherf et al.
# Submitted via: audiograbber 1.83.01
#
DISCID=a20c280c
DTITLE=Donkey Biters - Friend(k)s
DYEAR=1995
DGENRE=Blues
TTITLE0=Coconut
TTITLE1=Forggive Me
TTITLE2=I Feel Fine
TTITLE3=Donkey Biter
TTITLE4=Cowboys To Girls
TTITLE5=Blue Morin' Blues
TTITLE6=The Gardens
TTITLE7=Train Down South
TTITLE8=Blowing Heat Back Up The Line
TTITLE9=Tito Bandito
TTITLE10=This Time
TTITLE11=J.B.
EXTD=
EXTT0=
EXTT1=
EXTT2=
EXTT3=
EXTT4=
EXTT5=
EXTT6=
EXTT7=
EXTT8=
EXTT9=
EXTT10=
EXTT11=
PLAYORDER=
